<svg width="24" height="24" viewBox="0 0 24 24" fill="none" xmlns="http://www.w3.org/2000/svg">
<path d="M19 3.00012H5C3.895 3.00012 3 3.89512 3 5.00012V19.0001C3 20.1051 3.895 21.0001 5 21.0001H12.621V14.0391H10.278V11.3141H12.621V9.30912C12.621 6.98512 14.042 5.71812 16.116 5.71812C16.815 5.71612 17.513 5.75212 18.208 5.82312V8.25312H16.78C15.65 8.25312 15.43 8.78712 15.43 9.57512V11.3101H18.13L17.779 14.0351H15.414V21.0001H19C20.105 21.0001 21 20.1051 21 19.0001V5.00012C21 3.89512 20.105 3.00012 19 3.00012Z" fill="#1894B8"/>
</svg>
