<svg width="24" height="24" viewBox="0 0 24 24" fill="none" xmlns="http://www.w3.org/2000/svg">
<path d="M8 3.00012C5.239 3.00012 3 5.23912 3 8.00012V16.0001C3 18.7611 5.239 21.0001 8 21.0001H16C18.761 21.0001 21 18.7611 21 16.0001V8.00012C21 5.23912 18.761 3.00012 16 3.00012H8ZM18 5.00012C18.552 5.00012 19 5.44812 19 6.00012C19 6.55212 18.552 7.00012 18 7.00012C17.448 7.00012 17 6.55212 17 6.00012C17 5.44812 17.448 5.00012 18 5.00012ZM12 7.00012C14.761 7.00012 17 9.23912 17 12.0001C17 14.7611 14.761 17.0001 12 17.0001C9.239 17.0001 7 14.7611 7 12.0001C7 9.23912 9.239 7.00012 12 7.00012ZM12 9.00012C11.2044 9.00012 10.4413 9.31619 9.87868 9.8788C9.31607 10.4414 9 11.2045 9 12.0001C9 12.7958 9.31607 13.5588 9.87868 14.1214C10.4413 14.6841 11.2044 15.0001 12 15.0001C12.7956 15.0001 13.5587 14.6841 14.1213 14.1214C14.6839 13.5588 15 12.7958 15 12.0001C15 11.2045 14.6839 10.4414 14.1213 9.8788C13.5587 9.31619 12.7956 9.00012 12 9.00012Z" fill="#1894B8"/>
</svg>
