<svg width="24" height="24" viewBox="0 0 24 24" fill="none" xmlns="http://www.w3.org/2000/svg">
<path d="M19 3.00012H5C3.895 3.00012 3 3.89512 3 5.00012V19.0001C3 20.1051 3.895 21.0001 5 21.0001H19C20.105 21.0001 21 20.1051 21 19.0001V5.00012C21 3.89512 20.105 3.00012 19 3.00012ZM9 17.0001H6.477V10.0001H9V17.0001ZM7.694 8.71712C6.923 8.71712 6.408 8.20312 6.408 7.51712C6.408 6.83112 6.922 6.31712 7.779 6.31712C8.55 6.31712 9.065 6.83112 9.065 7.51712C9.065 8.20312 8.551 8.71712 7.694 8.71712ZM18 17.0001H15.558V13.1741C15.558 12.1161 14.907 11.8721 14.663 11.8721C14.419 11.8721 13.605 12.0351 13.605 13.1741C13.605 13.3371 13.605 17.0001 13.605 17.0001H11.082V10.0001H13.605V10.9771C13.93 10.4071 14.581 10.0001 15.802 10.0001C17.023 10.0001 18 10.9771 18 13.1741V17.0001Z" fill="#1894B8"/>
</svg>
