<svg width="24" height="24" viewBox="0 0 24 24" fill="none" xmlns="http://www.w3.org/2000/svg">
<path d="M22 3.99911C21.22 4.46211 19.655 5.09311 18.735 5.27512C18.708 5.28211 18.686 5.29111 18.66 5.29811C17.847 4.49611 16.733 3.99911 15.5 3.99911C13.015 3.99911 11 6.01411 11 8.49911C11 8.63011 10.989 8.87111 11 8.99911C7.647 8.99911 5.095 7.24311 3.265 4.99911C3.066 5.49911 2.979 6.28911 2.979 7.03112C2.979 8.43212 4.074 9.80812 5.779 10.6611C5.465 10.7421 5.119 10.8001 4.759 10.8001C4.178 10.8001 3.563 10.6471 3 10.1831C3 10.2001 3 10.2161 3 10.2341C3 12.1921 5.078 13.5251 6.926 13.8961C6.551 14.1171 5.795 14.1391 5.426 14.1391C5.166 14.1391 4.246 14.0201 4 13.9741C4.514 15.5791 6.368 16.4811 8.135 16.5131C6.753 17.5971 5.794 17.9991 2.964 17.9991H2C3.788 19.1451 6.065 20.0001 8.347 20.0001C15.777 20.0001 20 14.3371 20 8.99911C20 8.91311 19.998 8.73312 19.995 8.55211C19.995 8.53411 20 8.51711 20 8.49911C20 8.47211 19.992 8.44611 19.992 8.41911C19.989 8.28311 19.986 8.15612 19.983 8.09012C20.773 7.52012 21.458 6.80911 22 5.99911C21.275 6.32112 20.497 6.53712 19.68 6.63512C20.514 6.13512 21.699 4.94311 22 3.99911Z" fill="#1894B8"/>
</svg>
