<svg width="24" height="24" viewBox="0 0 24 24" fill="none" xmlns="http://www.w3.org/2000/svg">
<path d="M19.077 4.92812C17.191 3.04112 14.683 2.00112 12.011 2.00012C6.505 2.00012 2.024 6.47912 2.022 11.9851C2.021 13.7451 2.481 15.4631 3.355 16.9771L2 22.0001L7.233 20.7631C8.692 21.5591 10.334 21.9781 12.006 21.9791H12.01C17.515 21.9791 21.996 17.4991 21.999 11.9941C22.001 9.32512 20.963 6.81612 19.077 4.92812ZM16.898 15.5541C16.69 16.1371 15.671 16.6991 15.213 16.7401C14.755 16.7821 14.326 16.9471 12.218 16.1161C9.681 15.1161 8.079 12.5151 7.955 12.3491C7.83 12.1821 6.936 10.9961 6.936 9.76812C6.936 8.54012 7.581 7.93612 7.81 7.68712C8.039 7.43712 8.309 7.37512 8.476 7.37512C8.642 7.37512 8.809 7.37512 8.954 7.38112C9.132 7.38812 9.329 7.39712 9.516 7.81212C9.738 8.30612 10.223 9.54012 10.285 9.66512C10.347 9.79012 10.389 9.93612 10.306 10.1021C10.223 10.2681 10.181 10.3721 10.057 10.5181C9.932 10.6641 9.795 10.8431 9.683 10.9551C9.558 11.0791 9.428 11.2151 9.573 11.4641C9.719 11.7141 10.219 12.5311 10.961 13.1921C11.915 14.0421 12.718 14.3051 12.968 14.4311C13.218 14.5561 13.363 14.5351 13.509 14.3681C13.655 14.2021 14.133 13.6401 14.299 13.3901C14.465 13.1401 14.632 13.1821 14.861 13.2651C15.09 13.3481 16.317 13.9521 16.566 14.0771C16.816 14.2021 16.982 14.2641 17.044 14.3681C17.106 14.4711 17.106 14.9711 16.898 15.5541Z" fill="#1894B8"/>
</svg>
